<svg viewBox="0 0 764.93 116.49" xmlns="http://www.w3.org/2000/svg" id="Layer_1">
  <defs>
    <style>
      .cls-1, .cls-2 {
        fill: #ef233c;
      }

      .cls-2 {
        fill-rule: evenodd;
      }
    </style>
  </defs>
  <g>
    <path d="M125.17,81.33l-4.29,14.4h-21.14l23.4-74.06h28.09l24.33,74.06h-22.66l-4.5-14.4h-23.24ZM144.61,65.25c-3.48-11.64-6.33-21.98-8-29.2h-.3c-1.71,7.98-4.55,18.55-7.55,29.2h15.85Z" class="cls-1"></path>
    <path d="M183.34,21.68h21.76v57.97h34.9l-2.35,16.08h-54.32V21.68Z" class="cls-1"></path>
    <path d="M272.69,21.68h21.55v30.07c4.84-6.76,15.78-20.31,23.09-30.07h25.7l-27.21,30.34,28.14,43.71h-25.43l-17.74-29.7-6.55,6.75v22.95h-21.55V21.68Z" class="cls-1"></path>
    <path d="M368.17,81.33l-4.29,14.4h-21.14l23.4-74.06h28.09l24.33,74.06h-22.66l-4.5-14.4h-23.24ZM387.61,65.25c-3.48-11.64-6.33-21.98-8-29.2h-.3c-1.71,7.98-4.55,18.55-7.55,29.2h15.85Z" class="cls-1"></path>
    <path d="M426.34,21.68h36.85c17.86,0,25.74,8.85,25.74,19.26,0,7.9-4.15,13.54-10.08,15.99,5.55,1.97,12.13,7.17,12.13,16.74,0,12.14-9.07,22.07-27.54,22.07h-37.09V21.68ZM459.52,50.23c5.97,0,8.39-3.07,8.39-7.09,0-4.6-3.34-6.85-8.55-6.85h-11.95v13.94h12.11ZM447.4,81.15h11.09c7.14,0,10.17-3.1,10.17-8.4,0-4.65-2.87-7.94-9.77-7.94h-11.49v16.34Z" class="cls-1"></path>
    <path d="M521.07,81.33l-4.29,14.4h-21.14l23.4-74.06h28.09l24.33,74.06h-22.66l-4.5-14.4h-23.24ZM540.51,65.25c-3.48-11.64-6.33-21.98-8-29.2h-.3c-1.72,7.98-4.55,18.55-7.55,29.2h15.85Z" class="cls-1"></path>
    <path d="M587.22,95.73v-25.65c0-.97-.07-1.69-.76-2.81l-25.34-45.59h24.51c4.73,10.44,10.04,22.46,13.46,30.92,3-8.1,9.25-21.4,13.61-30.92h22.63l-25.67,45.5c-.36.61-.68,1.28-.68,2.78v25.78h-21.76Z" class="cls-1"></path>
    <path d="M694.5,65.76h-33.73v13.89h37.65l-2.42,16.08h-56.12V21.68h56.05v16.08h-35.16v11.92h33.73v16.08Z" class="cls-1"></path>
    <path d="M708.27,21.68h21.76v57.97h34.9l-2.35,16.08h-54.32V21.68Z" class="cls-1"></path>
  </g>
  <g>
    <path d="M41.4,1.21c10.25,15.74,35.3,31.48,40.77,49.05,13.44,40.61-15.49,65.02-38.04,66.16C4.96,118.47-13.94,78.77,11.79,43.87c-20.5,30.11-4.56,70.72,33.02,67.75,28.7-2.28,47.83-33.54,32.35-64.33-6.15-11.18-18-21.67-27.56-31.94,6.6,15.97,22.55,27.6,28.01,40.83,5.47,13.23,2.28,24.41-4.33,28.75-3.64,9.35-7.97,6.84-8.43,2.28-3.19,11.86-12.07,12.55-16.86-1.59l-4.78-.23c4.1,10.27-1.14,23.73-13.44,21.67-11.84-2.96-14.35-11.18-13.21-19.62,2.73-7.98,11.84-7.75,18.68-13.69-2.51,3.42-5.01,6.16-8.43,7.99-6.61,1.6-10.48,5.47-9.11,11.18,4.78,9.81,13.66,11.18,18.45,9.35,6.38-4.11,7.97-11.18,4.1-19.39l-6.6-14.6c-3.42,2.28-6.61,4.34-9.34,3.88,2.73-1.83,5.47-3.88,7.52-6.16.23-3.2-2.96-5.7-2.73-9.58.46-4.56.91-5.02,1.59-.92l3.19,7.53c3.42-1.83,4.1-6.85,3.64-13.23-.46-4.11.46-7.53,4.1-10.27-.46-1.59,4.1-5.25-1.59-4.34-2.28-6.39-.46-4.79,2.73-5.93,2.73-2.28,5.01-8.9,5.24,0-2.28,6.84-2.05,13.23-5.69,18.02-3.87,4.11.91,11.86-3.19,16.88l-3.42,2.96,4.55,9.81c1.82,2.96,3.87,4.34,5.69,3.88-.46-4.57-2.05-8.67-5.24-12.09-.46-1.83-.23-5.02.91-4.56,3.42,4.33,5.24,9.81,6.38,16.2,2.5-1.37,3.42-4.11,3.19-8.44,0-.91.23-1.59,1.14-.68,1.14,6.84.23,12.09-2.51,13.92,5.24,7.99,9.79,7.3,12.76-.23,2.51-6.62,2.51.23,3.87,1.14.91.46,3.19.69,2.28-.68-2.73-3.19-3.19-9.81-.23-13.92,2.73-.68,5.01.46,6.38,6.16,8.43-10.27-2.28-26.23-14.12-39.01-8.88-10.95-15.49-23.04-20.73-35.82-.91-2.28-1.14-4.11,1.37-1.6h0ZM68.28,77.4s.68-1.14,1.82-.92c1.37.23,2.73,1.6,3.19,2.05.23.69.23,1.37-.91,1.83-.91.46-3.64,1.37-4.1,0-.46-1.14,0-2.96,0-2.96h0Z" class="cls-2"></path>
    <path d="M46.19,104.55s4.78-3.42,5.69-3.88c.91-.23,3.64-.68,2.51.46-1.14,1.14-5.24,3.42-6.83,4.33-1.59.92-3.64,3.42-4.1,3.65-.46,0-2.28,0-.91-1.83,1.37-1.83,3.65-2.74,3.65-2.74h0Z" class="cls-2"></path>
    <path d="M47.78,94.52s-.23,2.96.23,3.19c.46.23,1.6-.69,1.6,0-.23.68-1.37,2.05-2.28.46-.91-1.37-.23-4.79.46-3.65h0Z" class="cls-2"></path>
    <path d="M60.08,99.07l-1.6,3.88s.91.68,1.37.91c.46.23,1.14.69,1.82-.46.46-.91,1.59-3.19,1.14-3.42-.68-.23-2.73-.92-2.73-.92h0Z" class="cls-2"></path>
    <path d="M32.07,92s-.68-5.25.23-6.16c1.14-.68,2.5,0,2.5,1.37-.23,1.37-1.14,2.05-1.59,2.05-.46-.23,0,4.11-1.14,6.16-.91,2.05-2.28,3.19-2.96,3.19-.46,0-.69-.23.46-1.14,1.14-.91,2.5-3.2,1.82-4.11-.68-.92-1.14-.23-1.59-.23-.68,0-1.14-.23-1.14-1.14,0-1.14.68-1.59,1.59-1.37.68.46,1.37,1.6,1.82,1.37h0Z" class="cls-2"></path>
    <path d="M13.39,61.44s-1.37-6.16-.23-7.07c1.14-.91,2.96-.23,2.96,1.37-.23,1.59-1.14,2.5-1.6,2.5-.68,0,.23,5.02-.91,7.53-1.14,2.51-2.73,3.88-3.42,4.11-.68,0-.91-.46.46-1.6,1.37-1.14,2.73-3.88,1.82-5.02-.91-.91-1.37-.23-2.05,0-.68,0-1.14-.23-1.37-1.6,0-1.37.91-1.83,1.82-1.37.91.46,1.82,1.6,2.51,1.14h0Z" class="cls-2"></path>
    <path d="M56.66,73.98s1.82,1.14,2.28,4.11c.23,3.2.23,4.33.91,2.74.68-1.37.91-5.48-.91-7.53-1.59-2.05-2.5-2.51-2.5-1.14-.23,1.37.23,1.82.23,1.82h0Z" class="cls-2"></path>
    <path d="M72.84,65.32s.68-.91.46.23c-.23,1.14-.91,3.65-.91,3.65,0,0,.23,1.6.91.23.68-1.37,1.37-4.56,1.37-6.16-.23-1.6-2.05-1.6-2.73-.23-.46,1.14,0,2.28.91,2.28h0Z" class="cls-2"></path>
    <path d="M33.66,33.83s1.59-1.14,1.37,0c-.23,1.14-1.14,3.88-1.14,3.88,0,0,.68,2.05,1.37.68.68-1.37.91-5.25.68-6.84-.23-1.6-2.73-1.83-3.19-.46-.45,1.14.23,2.97.91,2.74h0Z" class="cls-2"></path>
    <path d="M66.91,56.65s.46,4.33.23,4.79c-.23.23-2.96,3.19-3.42,4.11-.46,1.14-3.42,3.42-3.42,3.42,0,0-1.14-5.25-.68-5.93.68-.46,7.29-6.85,7.29-6.39h0Z" class="cls-2"></path>
    <path d="M49.83,56.42l-.68,3.42s2.28-.68,2.28,1.6c.23,2.05,0,4.56-1.37,6.62-1.14,1.83-3.19,4.33-2.73,2.74.46-1.6,2.28-3.65,1.82-4.34-.23-.68-.91-.23-1.59-.68-.68-.23-1.14-.46-.68-2.97.23-2.74,1.59-6.16,2.05-6.62.46-.68.91,1.14.91.23h0Z" class="cls-2"></path>
    <path d="M59.17,50.26s-1.37,4.11-.91,6.39c.46,2.28,1.59,1.82,2.51,1.37.91-.69.68-3.2,0-3.88-.68-.68-.23.46-.68.68-.46.23-.69-.46-.69-1.6v-2.96s-1.14.91-.23,0h0Z" class="cls-2"></path>
    <path d="M10.65,81.97s-1.37,4.79-.91,7.75c.46,2.74,1.59,2.28,2.5,1.6.91-.68.68-3.65,0-4.56-.68-.69-.23.68-.68.91-.45.23-.68-.69-.68-2.05v-3.65s-1.14,1.14-.23,0h0Z" class="cls-2"></path>
    <path d="M47.55,47.75s.91,1.83-.23,3.65c-1.14,2.05-1.82,2.96-1.82,4.1,0,.92-.45,1.83-.68.46-.46-1.14,0-3.42,1.14-4.79,1.14-1.37.91-2.28,1.14-2.74,0-.46-.46-1.59.46-.68h0Z" class="cls-2"></path>
    <path d="M51.65,53.9s.23,2.74.68,2.05c.23-.68.46-1.14.68-1.59.23-.46,6.38-6.84,7.29-8.44,1.14-1.6,1.59-2.97.91-2.97s-4.78,6.16-5.92,7.08c-.91,1.14-2.96,2.96-2.96,2.96,0,0-.68,0-.68.91h0Z" class="cls-2"></path>
    <path d="M53.02,42.27s.91-1.83,1.14-.46c0,1.6,0,2.97-1.37,3.42-1.37.46-2.73-1.14-2.96-3.42v-7.98s.68-2.28.91-.46c.23,1.83.46,6.85.68,7.76.46.68.91,1.37,1.59,1.14h0Z" class="cls-2"></path>
    <path d="M42.09,18.78s.91-1.6.91-.23c.23,1.37.23,2.96-1.37,3.42-1.37.23-2.73-1.37-2.73-3.65-.23-2.28,0-7.98,0-7.98,0,0,.68-2.29.91-.46.23,1.83.23,6.84.68,7.75.46.92.91,1.37,1.59,1.14h0Z" class="cls-2"></path>
    <path d="M17.26,44.32s2.05.23,2.73.92c.68.68.91.68.91,1.6,0,.68-.46,4.33-.91,4.56-.46.22-1.37-1.14-2.28-1.37-.91-.23-1.14-.23-1.14-1.14,0-.68.68-4.56.68-4.56h0Z" class="cls-2"></path>
    <path d="M21.82,77.18s.91.23.23.91c-.68.69-5.01,3.2-5.69,3.42-.45.23-.91,0,.23-.68,1.37-.92,5.24-3.65,5.24-3.65h0Z" class="cls-2"></path>
    <path d="M34.8,12.62s2.05,9.58,2.05,11.63-1.37,2.51-1.59.92c0-1.83-1.14-6.84-1.14-6.84,0,0-1.59,3.88-3.65,7.98-2.05,4.11-4.33,6.84-4.33,6.84,0,0,5.7,5.02,5.7,8.44.23,3.65-.46,8.67-2.51,10.5-2.28,1.82-4.1,2.51-3.65,5.7.46,3.42,2.05,9.12-1.37,12.55-3.19,3.19-9.79,6.16-12.07,7.07-2.28.68-4.55.46-2.73-.46,1.82-1.14,10.25-6.84,12.3-10.27,1.82-3.42,2.05-7.98,1.82-11.63-.23-3.42-.46-4.34.91-5.71,1.37-1.37,4.78-5.02,5.24-6.39.68-1.59-.46-3.65-2.28-4.56-1.6-.91-1.82-.91-1.6.46.46,1.37,1.82,4.1,1.14,4.56-.46.46-1.14.23-1.14-1.14,0-1.14-1.14-2.05-1.37-3.42-.23-1.37-.46-3.65-1.14-3.42-.91.23-4.33,3.2-6.38,3.42-2.05.46-3.42.68-1.14-.68,2.28-1.6,12.07-12.32,14.58-19.17,2.73-6.62,3.19-7.3,3.19-7.3,0,0,.91-.92,1.14.92h0Z" class="cls-2"></path>
  </g>
</svg>