<?xml version="1.0" encoding="utf-8"?>
<!-- Generator: Adobe Illustrator 23.0.1, SVG Export Plug-In . SVG Version: 6.00 Build 0)  -->
<svg version="1.1" xmlns="http://www.w3.org/2000/svg" xmlns:xlink="http://www.w3.org/1999/xlink" x="0px" y="0px"
	 viewBox="0 0 626.04 144.41" style="enable-background:new 0 0 626.04 144.41;" xml:space="preserve">
<style type="text/css">
	.st0{fill:#FFFFFF;stroke:#0082D1;stroke-width:1.1601;}
	.st1{fill:none;stroke:#000000;stroke-width:0.7734;}
	.st2{fill:none;stroke:#0082D1;stroke-width:1.1601;}
	.st3{fill:none;stroke:#0082D1;stroke-width:2.7069;}
	.st4{fill:none;stroke:#0082D1;stroke-width:2.9389;}
	.st5{fill:none;stroke:#FFFFFF;stroke-width:1.9335;}
	.st6{fill:#FFFFFF;}
</style>
<g id="Guides_For_Artboard">
</g>
<g id="Layer_1">
	<g>
		<path class="st0" d="M69.82,134.02c34.38,0,62.26-27.87,62.26-62.26c0-34.38-27.87-62.26-62.26-62.26
			c-34.38,0-62.25,27.87-62.25,62.26C7.57,106.15,35.44,134.02,69.82,134.02z"/>
		<path class="st1" d="M30.43,73.69"/>
		<path class="st1" d="M109.18,73.33"/>
		<path class="st2" d="M69.82,130.82c32.61,0,59.05-26.44,59.05-59.05s-26.44-59.05-59.05-59.05c-32.62,0-59.06,26.44-59.06,59.05
			S37.2,130.82,69.82,130.82z"/>
		<path class="st0" d="M69.82,115.03c23.9,0,43.27-19.37,43.27-43.27c0-23.9-19.37-43.27-43.27-43.27
			c-23.9,0-43.27,19.38-43.27,43.27C26.55,95.66,45.92,115.03,69.82,115.03z"/>
		<line class="st3" x1="107.56" y1="87.28" x2="31.89" y2="87.28"/>
		<line class="st3" x1="105.13" y1="92.64" x2="34.69" y2="92.64"/>
		<line class="st3" x1="101.59" y1="97.81" x2="37.86" y2="97.81"/>
		<line class="st3" x1="96.6" y1="103.11" x2="43.33" y2="103.11"/>
		<line class="st3" x1="88.89" y1="108.46" x2="51.3" y2="108.46"/>
		<g>
			<g>
				<path class="st4" d="M29.6,75.8c0,0,4.12-4.17,9.32-0.84c5.2,3.33,6.5,3.32,11.4,0.18"/>
				<path class="st4" d="M39.44,75.21c0,0,4.17,4.11,9.33,0.71c5.16-3.4,6.45-3.41,11.39-0.34"/>
			</g>
			<g>
				<path class="st4" d="M59.77,75.33c0,0,4.17,4.11,9.33,0.71c5.16-3.4,6.45-3.41,11.39-0.34"/>
				<path class="st4" d="M69.62,75.78c0,0,4.11-4.17,9.32-0.84c5.2,3.33,6.5,3.32,11.39,0.18"/>
			</g>
			<path class="st4" d="M89.43,75.77c0,0,4.11-4.17,9.32-0.84c5.2,3.33,6.5,3.32,11.4,0.18"/>
		</g>
		<g>
			<g>
				<path class="st4" d="M29.64,81.77c0,0,4.11-4.17,9.32-0.84c5.2,3.33,6.5,3.32,11.4,0.18"/>
				<path class="st4" d="M39.47,81.19c0,0,4.17,4.11,9.33,0.71c5.16-3.4,6.45-3.41,11.39-0.34"/>
			</g>
			<g>
				<path class="st4" d="M59.8,81.3c0,0,4.17,4.11,9.33,0.71c5.16-3.4,6.45-3.41,11.39-0.34"/>
				<path class="st4" d="M69.65,81.75c0,0,4.12-4.17,9.32-0.84c5.2,3.33,6.5,3.32,11.4,0.18"/>
			</g>
			<path class="st4" d="M89.46,81.74c0,0,4.11-4.17,9.32-0.84c5.2,3.33,6.5,3.32,11.4,0.18"/>
		</g>
		<path class="st5" d="M69.82,113.31c22.95,0,41.55-18.6,41.55-41.55c0-22.95-18.6-41.55-41.55-41.55
			c-22.95,0-41.55,18.6-41.55,41.55C28.27,94.71,46.87,113.31,69.82,113.31z"/>
		<path class="st2" d="M29.56,74.17c1.06,21.07,18.82,37.8,40.34,37.8c21.65,0,39.11-17.67,40.36-38.17"/>
	</g>
	<g>
		<g>
			<path class="st6" d="M154.05,65.37c-3.11,0-6.46-0.65-6.46-4.98c0-2.28,1.15-5.58,2.43-7.33L150,52.98
				c-1.12-0.57-2.4-1.52-2.4-3.04c0-2.01,2.94-6.8,4.9-6.8c1.28,0,3.28,2.01,3.62,3.34c-0.58-0.11-1.29-0.23-1.89-0.23
				c-0.81,0-4.06,0.38-4.06,1.63s1.45,1.48,2.3,1.48c2,0,3.69-1.86,5.61-1.75c-0.34,1.14-0.68,2.32-1.18,3.38
				c-2.77,0.91-7.34,3.23-7.34,7.07c0,4.67,10.18,4.03,12.68,4.03C160.41,64.57,156.79,65.37,154.05,65.37z"/>
			<path class="st6" d="M163.63,54.61c-0.44,0-2.54-1.6-2.91-2.01c0.24-0.57,2.54-2.55,2.91-2.55c0.24,0,2.98,2.28,2.98,2.47
				C166.6,52.94,164.13,54.61,163.63,54.61z"/>
			<path class="st6" d="M175.43,65.37c-3.11,0-6.46-0.65-6.46-4.98c0-2.28,1.15-5.58,2.43-7.33l-0.03-0.08
				c-1.12-0.57-2.4-1.52-2.4-3.04c0-2.01,2.94-6.8,4.9-6.8c1.28,0,3.28,2.01,3.62,3.34c-0.58-0.11-1.29-0.23-1.89-0.23
				c-0.81,0-4.06,0.38-4.06,1.63s1.45,1.48,2.3,1.48c2,0,3.69-1.86,5.61-1.75c-0.34,1.14-0.68,2.32-1.18,3.38
				c-2.77,0.91-7.34,3.23-7.34,7.07c0,4.67,10.18,4.03,12.68,4.03C181.79,64.57,178.17,65.37,175.43,65.37z"/>
			<path class="st6" d="M185,54.61c-0.44,0-2.54-1.6-2.91-2.01c0.24-0.57,2.54-2.55,2.91-2.55c0.24,0,2.98,2.28,2.98,2.47
				C187.98,52.94,185.51,54.61,185,54.61z"/>
			<path class="st6" d="M200.22,52.07c-1.01-0.42-2.64-0.84-3.72-0.84c-0.91,0-3.11,0.38-3.92,0.84c0.34,1.33,0.61,2.74,0.61,4.14
				c0,1.1-0.57,5.62-1.52,6l-1.39-9.92c-0.14-0.87,1.25-2.62,1.86-3.15c0.85-0.72,2.71-1.29,3.75-1.67
				c-0.37-0.65-1.01-1.18-1.72-1.18c-1.18,0-2.1,1.6-3.01,2.28c0.61-2.09,2.16-6.38,4.53-6.38c2,0,4.6,4.37,5.85,5.93L200.22,52.07z
				"/>
			<path class="st6" d="M207.25,54.61c-0.44,0-2.54-1.6-2.91-2.01c0.24-0.57,2.54-2.55,2.91-2.55c0.24,0,2.98,2.28,2.98,2.47
				C210.23,52.94,207.76,54.61,207.25,54.61z"/>
			<path class="st6" d="M226.02,54.61c-1.35,4.22-2.1,5.24-6.05,6.23c-0.54,0.15-1.12,0.19-1.66,0.19c-2.47,0-5.65-0.87-5.65-4.29
				c0-2.05,2.27-8.82,4.29-8.82v0.65c0,0.34-2.03,2.36-2.03,4.67c0,2.74,2.37,3.5,4.4,3.5c0.78,0,4.87-0.34,4.87-1.41
				c0-1.33-1.62-4.29-2.3-5.47l2.13-3.76c0.85,1.52,1.56,3.27,2.91,4.33c0.27,0,0.71,0,1.05,0v4.18H226.02z"/>
			<path class="st6" d="M233.09,43.52c-0.24,0-2.47-1.48-2.81-1.67c-0.51,0.53-1.05,1.06-1.59,1.6c-0.54-0.04-2.37-1.29-2.87-1.71
				c0.2-0.42,1.79-2.43,2.13-2.51c0.44,0.38,2.06,1.6,2.5,1.6c0.24,0,1.52-1.41,1.79-1.67l2.94,1.79
				C234.98,41.39,233.46,43.52,233.09,43.52z M235.29,54.61h-5.14c-0.07-0.23-0.24-0.42-0.37-0.61c-0.2,0.15-0.34,0.42-0.54,0.61
				h-2.81v-4.18h3.21c0.17-0.49,0.03-1.06,0.27-1.6c0.47-0.99,1.62-2.96,2.6-3.34v0.27c0,1.06-1.01,3.19-1.01,4.52
				c0,0.08,0.1,0.11,0.14,0.15h2.4c0.03-0.04,0.1-0.15,0.1-0.23c0-0.42-0.14-0.87-0.14-1.33c0-1.03,1.89-3.34,2.57-3.91v4.56
				C236.57,51.5,235.86,52.79,235.29,54.61z M230.22,39.68c-0.2,0-1.96-1.56-1.96-1.79c0-0.27,1.72-2.09,1.93-2.09
				c0.24,0,1.83,1.75,2.1,2.01C232.04,38.2,230.59,39.68,230.22,39.68z"/>
			<path class="st6" d="M251.39,40.06c-0.3,0-2.43-1.33-2.77-1.6c-0.54,0.38-1.08,1.03-1.56,1.52c-1.01-0.34-1.89-0.95-2.81-1.63
				c0.61-0.91,1.32-1.71,2-2.55c0.41,0.34,2.16,1.6,2.54,1.6c0.2,0,1.56-1.37,1.79-1.6l2.84,1.71
				C253.18,37.97,251.69,40.06,251.39,40.06z M256.02,54.61c-1.72,0-1.89-2.55-2.33-3.88c-0.68,0.53-1.35,3.19-2.16,3.04l-6.12-1.22
				c1.49-6.72,1.96-5.78,6.93-9.12c-0.17-0.34-0.27-0.72-0.34-1.14l2.03-3.91l0.17,0.11c0.74,3.27,1.12,8.21,2,11.06
				c0.17,0.53,0.85,0.87,1.59,0.87c1.01,0,1.35,0,1.72,0v4.18H256.02z M252.71,45.5c-0.51,0.65-0.85,1.44-1.52,1.86
				c-0.37,0.27-1.12,0.53-1.28,0.99l3.42,0.49L252.71,45.5z"/>
			<path class="st6" d="M267.08,54.61c-1.25,0-2.1-1.18-2.4-2.43c-0.47,0.76-0.85,1.6-1.25,2.43h-5.27v-4.18h6.05
				c0.44-0.84,0.24-1.98,0.24-2.85c0-1.06,1.86-2.92,2.5-3.69v2.01c0,0.91-0.24,1.86-0.24,2.77c0,1.18,0.71,1.75,1.56,1.75
				c0.3,0,0.68,0,1.01,0v4.18H267.08z M265.9,61.19c-0.27,0-2.23-1.44-2.57-1.67c-0.51,0.38-0.98,1.03-1.39,1.6
				c-0.98-0.42-1.89-1.03-2.71-1.71c0.2-0.65,1.45-2.05,1.89-2.66c0.41,0.38,1.96,1.67,2.4,1.67l1.56-1.75l2.77,1.94
				C267.52,59.02,266.23,61.19,265.9,61.19z"/>
			<path class="st6" d="M282.09,54.61h-13.93v-4.18h2.5c0.07-0.65-0.03-1.33,0.17-1.94c0.61-2.17,4.53-5.66,6.63-5.66
				c2.64,0,4.4,3.04,4.9,5.62c-2.1-1.29-2.5-1.9-5.07-1.9c-1.05,0-2.71,0.15-3.65,0.68l-0.03-0.04c-0.03,0-0.03,0.15-0.03,0.15
				c0,0.34,2.91,3,3.31,3h7.4L282.09,54.61z"/>
			<path class="st6" d="M288.05,54.61l-1.18-14.89c-0.03-0.38,1.96-3.12,2.3-3.46c0.27,3.57,0.47,10.33,1.15,13.56
				c0.07,0.42,0.51,0.61,1.08,0.61c0.95,0,1.49,0,1.79,0v4.18H288.05z"/>
			<path class="st6" d="M300.36,54.61c-1.08,0-1.79-1.44-2.1-2.47l-1.22,2.47h-5.24v-4.18h6.02c0.34-1.06-0.03-2.28,0.37-3.34
				c0.44-1.25,1.59-2.24,2.4-3.23v1.71c0,1.1-0.34,2.24-0.34,3.31c0,1.14,0.95,1.56,1.83,1.56c0.2,0,0.57,0,0.81,0v4.18H300.36z
				 M298.33,42.19c-1.08-0.61-2.13-1.25-3.28-1.71c0.64-1.1,1.66-2.13,2.54-3c0.24,0.04,2.13,1.56,3.01,1.75
				C300.49,39.68,298.67,42.15,298.33,42.19z"/>
			<path class="st6" d="M306.58,54.61c-0.03-0.38-0.17-0.72-0.3-1.06c-0.47,0.3-0.68,1.06-1.22,1.06h-2.98v-4.18h3.82
				c0.41-0.87,0.44-0.99,0.44-1.98c0-0.76,1.86-3,2.47-3.27c0,0.3,0.07,0.65,0.07,0.95c0,0.61-0.81,3.57-1.01,4.29
				c0.44,0,1.52,0,1.69,0v4.18H306.58z"/>
			<path class="st6" d="M307.83,54.61v-4.18h1.49c2.06-2.01,7.54-5.66,10.31-5.66c1.72,0,3.72,2.24,3.72,4.22
				c0,0.23-0.27,1.14-0.34,1.44c0.57,0,1.05,0,1.49,0v4.18H307.83z M316.89,48.16c-1.45,0-3.45,1.37-4.7,2.13h7.95
				C319.46,49.07,318.18,48.16,316.89,48.16z"/>
			<path class="st6" d="M328.56,44.39l0.41,5.13c0.07,0.65-0.61,4.25-0.91,4.71c-0.1,0.15-0.37,0.3-0.54,0.38h-4.5v-4.18h3.55
				c0.07-0.11,0.1-0.27,0.1-0.38c0-1.33-0.78-7.1-1.18-8.24c-0.1-0.34-1.01-0.84-1.05-1.18c0.64-1.48,1.42-3.23,2.4-4.45l0.2,0.19
				c0.03,0.42,0.07,0.84,0.2,1.22c0.24,0.8,3.18,2.58,3.96,2.96L328.56,44.39z"/>
			<path class="st6" d="M335.53,54.92l-1.52-12.23c0.51-1.6,1.62-3.61,2.5-4.98c0.47,3.57,0.98,7.14,0.98,10.75
				C337.49,50.93,336.95,53.02,335.53,54.92z"/>
			<path class="st6" d="M360.42,54.61h-12.27c-1.56,0-3.11-1.98-3.11-3.69c0-1.75,1.01-6.27,2.67-6.88l0.17,0.08v0.34
				c-0.3,0.87-0.81,2.51-0.81,3.42c0,1.06,1.49,2.47,2.43,2.47h10.65c-0.2-1.44-0.85-2.28-1.42-3.5l1.93-3.72
				c0.81,0.99,1.93,3.27,1.93,4.64C362.58,50.25,361.5,52.52,360.42,54.61z M356.33,40.44l-2.94-1.67c-0.51,0.57-1.05,1.1-1.56,1.6
				c-0.47,0-2.57-1.37-2.94-1.79l2.16-2.55c0.44,0.34,2.16,1.67,2.6,1.67c0.17,0,1.59-1.44,1.86-1.67l2.94,1.86
				C357.85,38.81,357.14,39.76,356.33,40.44z"/>
			<path class="st6" d="M366.74,54.61l-1.18-14.89c-0.03-0.38,1.96-3.12,2.3-3.46c0.27,3.57,0.47,10.33,1.15,13.56
				c0.07,0.42,0.51,0.61,1.08,0.61c0.95,0,1.49,0,1.79,0v4.18H366.74z"/>
			<path class="st6" d="M370.4,54.61v-4.18h3.25c0.24-0.68,0.07-1.22,0.54-1.9c1.35-1.86,4.29-5.17,6.59-5.17
				c1.59,0,2.06,2.32,2.06,3.72c0,1.44-0.68,2.17-1.28,3.34h2.37v4.18H370.4z M377.09,42.3c-0.41,0-2.57-1.98-2.57-2.36
				c0.27-0.53,2-2.66,2.54-2.7c0.85,0.46,2.03,1.86,2.74,2.62C379.59,40.52,377.63,42.3,377.09,42.3z M378.48,47.55
				c-0.51,0-2.4,0.84-2.4,1.48c0,0.76,1.62,1.41,2.2,1.41c0.37,0,1.79-0.08,1.79-0.76C380.07,48.8,379.32,47.55,378.48,47.55z"/>
			<path class="st6" d="M382.54,54.61v-4.18c0.27,0,1.05,0,1.79,0c0.71,0,1.39-0.15,1.39-0.8c0-2.28-0.54-5.96-0.91-8.21
				c-0.14-0.84-0.71-0.84-0.71-1.75c0-1.14,1.42-2.89,2.13-3.65c0.37,1.94,2.3,3.19,3.75,3.99c-0.81,1.1-0.74,3.04-2.3,3.31
				c0.07,0.65,0.14,1.29,0.14,1.94c0,1.33-0.47,2.58-0.71,3.88c1.62-1.22,7.71-4.79,9.57-4.79c1.45,0,4.4,3.19,4.43,4.83l-0.58,1.25
				c0.54,0,1.01,0,1.49,0v4.18H382.54z M394.54,47.85c-1.83,0-4.4,1.44-5.85,2.7l9.13-0.08C397.42,49.37,395.66,47.85,394.54,47.85z
				 M394.54,42.27c-0.37-0.04-2.54-1.94-2.54-2.32s2.16-2.7,2.5-2.7c0.3,0,2.71,2.43,2.71,2.7
				C397.21,40.52,395.05,41.96,394.54,42.27z"/>
			<path class="st6" d="M409.63,54.61c-1.08,0-1.79-1.44-2.1-2.47l-1.22,2.47h-5.24v-4.18h6.02c0.34-1.06-0.03-2.28,0.37-3.34
				c0.44-1.25,1.59-2.24,2.4-3.23v1.71c0,1.1-0.34,2.24-0.34,3.31c0,1.14,0.95,1.56,1.83,1.56c0.2,0,0.58,0,0.81,0v4.18H409.63z
				 M407.6,42.19c-1.08-0.61-2.13-1.25-3.28-1.71c0.64-1.1,1.66-2.13,2.54-3c0.24,0.04,2.13,1.56,3.01,1.75
				C409.76,39.68,407.94,42.15,407.6,42.19z"/>
			<path class="st6" d="M422.68,54.61c-0.54,0.57-0.44,1.52-1.18,1.9l-6.56-4.1c-0.61,0.61-0.37,2.2-1.49,2.2h-2.33v-4.18h3.48
				c0.51-0.38,1.01-2.2,1.69-2.96c1.08-1.22,3.11-2.51,4.67-2.51c0.68,0,0.91,0.11,0.95,0.84c-0.03,1.33,0.78,4.63,2.33,4.63h0.95
				v4.18H422.68z M419.98,49.56c0-1.18-1.62-0.95-2.16-0.49c0.51,0.34,1.59,1.25,2.16,1.29V49.56z"/>
			<path class="st6" d="M428.36,54.61c-0.64,0-0.58-2.01-0.61-2.51l-1.22,2.51h-2.4v-4.18h3.52l-1.35-10.22l2.6-4.1l0.13,0.11
				c0.98,4.37,0.74,9.12,1.29,13.56c0.1,0.8,0.91,0.65,1.45,0.65v4.18H428.36z"/>
			<path class="st6" d="M436.28,44.39l0.41,5.13c0.07,0.65-0.61,4.25-0.91,4.71c-0.1,0.15-0.37,0.3-0.54,0.38h-4.5v-4.18h3.55
				c0.07-0.11,0.1-0.27,0.1-0.38c0-1.33-0.78-7.1-1.18-8.24c-0.1-0.34-1.01-0.84-1.05-1.18c0.64-1.48,1.42-3.23,2.4-4.45l0.2,0.19
				c0.03,0.42,0.07,0.84,0.2,1.22c0.24,0.8,3.18,2.58,3.96,2.96L436.28,44.39z"/>
			<path class="st6" d="M453.05,40.06c-0.3,0-2.43-1.33-2.77-1.6c-0.54,0.38-1.08,1.03-1.56,1.52c-1.01-0.34-1.89-0.95-2.81-1.63
				c0.61-0.91,1.32-1.71,2-2.55c0.41,0.34,2.16,1.6,2.54,1.6c0.2,0,1.55-1.37,1.79-1.6l2.84,1.71
				C454.84,37.97,453.36,40.06,453.05,40.06z M457.68,54.61c-1.72,0-1.89-2.55-2.33-3.88c-0.68,0.53-1.35,3.19-2.16,3.04l-6.12-1.22
				c1.49-6.72,1.96-5.78,6.93-9.12c-0.17-0.34-0.27-0.72-0.34-1.14l2.03-3.91l0.17,0.11c0.74,3.27,1.12,8.21,2,11.06
				c0.17,0.53,0.84,0.87,1.59,0.87c1.01,0,1.35,0,1.72,0v4.18H457.68z M454.37,45.5c-0.51,0.65-0.84,1.44-1.52,1.86
				c-0.37,0.27-1.12,0.53-1.29,0.99l3.42,0.49L454.37,45.5z"/>
			<path class="st6" d="M468.74,54.61c-1.25,0-2.1-1.18-2.4-2.43c-0.47,0.76-0.85,1.6-1.25,2.43h-5.28v-4.18h6.05
				c0.44-0.84,0.24-1.98,0.24-2.85c0-1.06,1.86-2.92,2.5-3.69v2.01c0,0.91-0.24,1.86-0.24,2.77c0,1.18,0.71,1.75,1.56,1.75
				c0.3,0,0.68,0,1.01,0v4.18H468.74z M467.56,61.19c-0.27,0-2.23-1.44-2.57-1.67c-0.51,0.38-0.98,1.03-1.39,1.6
				c-0.98-0.42-1.89-1.03-2.71-1.71c0.2-0.65,1.45-2.05,1.89-2.66c0.41,0.38,1.96,1.67,2.4,1.67l1.56-1.75l2.77,1.94
				C469.18,59.02,467.9,61.19,467.56,61.19z"/>
			<path class="st6" d="M478.25,54.61c-1.08,0-1.79-1.44-2.1-2.47l-1.22,2.47h-5.24v-4.18h6.02c0.34-1.06-0.03-2.28,0.37-3.34
				c0.44-1.25,1.59-2.24,2.4-3.23v1.71c0,1.1-0.34,2.24-0.34,3.31c0,1.14,0.95,1.56,1.83,1.56c0.2,0,0.58,0,0.81,0v4.18H478.25z
				 M476.22,42.19c-1.08-0.61-2.13-1.25-3.28-1.71c0.64-1.1,1.66-2.13,2.54-3c0.24,0.04,2.13,1.56,3.01,1.75
				C478.38,39.68,476.56,42.15,476.22,42.19z"/>
			<path class="st6" d="M497.01,54.61h-17.18v-4.18c0.34,0,1.22,0,2.03,0c0.61,0,1.08-0.3,1.08-0.91c0-1.03-0.74-7.75-0.98-8.55
				c-0.17-0.57-0.68-0.42-0.68-1.29c0-1.03,1.45-3,2.16-3.65c0.41,1.94,2.23,3.19,3.75,3.91c-0.58,0.99-0.98,3.15-2.2,3.34
				l-0.1,0.11c-0.03,0.57,0.14,1.14,0.14,1.71c0,1.33-0.41,2.62-0.71,3.88c1.49-1.14,7.95-4.71,9.57-4.71c1.59,0,4.09,3.04,4.4,4.71
				L497.01,54.61z M491.98,47.81c-2.3,0-4.19,1.18-6.05,2.58h9.13C494.71,49.3,493.06,47.81,491.98,47.81z"/>
			<path class="st6" d="M508.72,54.61c-0.95,2.39-3.35,6.27-5.92,6.27c-1.79,0-4.9-1.18-6.09-2.74v-0.38c0.1-0.08,0.2-0.11,0.3-0.11
				c0.98,0,2,0.61,2.94,0.61c2.13,0,5-1.98,6.46-3.57c-1.59-0.34-4.67-0.38-4.67-2.96c0-1.94,2.1-7.83,4.29-7.83
				c2.13,0,2.94,4.67,3.21,6.54h2.03v4.18H508.72z M504.96,47.85c-0.3,0-1.15,0.87-1.12,1.25c0,0.15,0,0.11,0,0.15
				c0.41,0.8,1.25,1.1,2.03,1.1c0.2,0,0.47-0.08,0.68-0.19C506.28,49.52,505.78,47.85,504.96,47.85z"/>
			<path class="st6" d="M515.55,44.39l0.41,5.13c0.07,0.65-0.61,4.25-0.91,4.71c-0.1,0.15-0.37,0.3-0.54,0.38H510v-4.18h3.55
				c0.07-0.11,0.1-0.27,0.1-0.38c0-1.33-0.78-7.1-1.18-8.24c-0.1-0.34-1.01-0.84-1.05-1.18c0.64-1.48,1.42-3.23,2.4-4.45l0.2,0.19
				c0.03,0.42,0.07,0.84,0.2,1.22c0.24,0.8,3.18,2.58,3.96,2.96L515.55,44.39z"/>
			<path class="st6" d="M522.52,54.92l-1.52-12.23c0.51-1.6,1.62-3.61,2.5-4.98c0.47,3.57,0.98,7.14,0.98,10.75
				C524.48,50.93,523.94,53.02,522.52,54.92z"/>
			<path class="st6" d="M540.14,40.06c-0.3,0-2.43-1.33-2.77-1.6c-0.54,0.38-1.08,1.03-1.56,1.52c-1.01-0.34-1.89-0.95-2.81-1.63
				c0.61-0.91,1.32-1.71,2-2.55c0.41,0.34,2.16,1.6,2.54,1.6c0.2,0,1.55-1.37,1.79-1.6l2.84,1.71
				C541.93,37.97,540.44,40.06,540.14,40.06z M544.77,54.61c-1.72,0-1.89-2.55-2.33-3.88c-0.68,0.53-1.35,3.19-2.16,3.04l-6.12-1.22
				c1.49-6.72,1.96-5.78,6.93-9.12c-0.17-0.34-0.27-0.72-0.34-1.14l2.03-3.91l0.17,0.11c0.74,3.27,1.12,8.21,2,11.06
				c0.17,0.53,0.84,0.87,1.59,0.87c1.01,0,1.35,0,1.72,0v4.18H544.77z M541.45,45.5c-0.51,0.65-0.84,1.44-1.52,1.86
				c-0.37,0.27-1.12,0.53-1.29,0.99l3.42,0.49L541.45,45.5z"/>
			<path class="st6" d="M558.33,40.14c-2.4,0.87-4.8,1.6-7.2,2.43c1.32,1.29,6.9,5.74,6.9,7.56c0,0.42-0.91,3.88-1.08,4.48h-10.55
				v-4.18h8.45l-3.79-3.27c-0.1,0.27-0.3,0.46-0.58,0.46c-0.47,0-2.77-2.74-2.77-3.19c0-1.48,0.64-3.46,0.91-4.94
				c3.55-1.18,7.13-2.28,10.69-3.53C559.04,37.37,558.7,38.77,558.33,40.14z"/>
			<path class="st6" d="M571.69,54.61c-0.34,0-1.05-0.3-1.32-0.46l-0.17,0.23c-1.22,2.24-2.57,6.61-5.51,6.61
				c-1.72,0-5.78-2.32-6.93-3.8V56.7c0-0.08,0.13-0.08,0.17-0.08c0.13,0,1.76,1.52,3.28,1.52c1.79,0,7.07-3.69,7.07-5.55
				c0-1.06-1.96-3.27-1.96-3.57c0-0.34,1.62-3.23,1.93-3.65c1.69,2.43,1.96,5.05,5.28,5.05h0.64v4.18H571.69z"/>
			<path class="st6" d="M577.51,54.61c-0.03-0.38-0.17-0.72-0.3-1.06c-0.47,0.3-0.68,1.06-1.22,1.06h-2.98v-4.18h3.82
				c0.41-0.87,0.44-0.99,0.44-1.98c0-0.76,1.86-3,2.47-3.27c0,0.3,0.07,0.65,0.07,0.95c0,0.61-0.81,3.57-1.01,4.29
				c0.44,0,1.52,0,1.69,0v4.18H577.51z"/>
			<path class="st6" d="M585.22,43.33l-2.87-1.63c-0.2,0.19-1.42,1.56-1.59,1.56c-0.24,0-2.54-1.44-2.91-1.67
				c0.58-0.91,1.42-1.75,2.16-2.51c0.41,0.34,2.16,1.63,2.57,1.63c0.13,0,1.56-1.48,1.79-1.71l2.91,1.82
				C587.08,41.54,585.79,42.87,585.22,43.33z M588.53,54.61c-0.13-0.34-0.27-0.72-0.44-1.06c-0.24,0.34-0.44,0.72-0.68,1.06h-4.53
				c-0.14-0.19-0.44-0.68-0.68-0.68c-0.2,0-0.58,0.68-0.78,0.68h-2.4v-4.18h2.67c0.41-0.46,0.3-0.84,0.3-1.37
				c0-0.8,1.93-3.46,2.47-3.99c0.03,0.15,0.1,0.3,0.1,0.42c0,1.56-0.24,3.42-0.58,4.94c0.2-0.11,2.23,0,2.57,0
				c0.1-0.15,0.17-0.27,0.17-0.46c0-0.46-0.2-0.87-0.2-1.33c0-0.65,1.69-2.93,2.23-3.27c0.51,2.13-0.64,5.05,1.69,5.05
				c0.24,0,0.54,0,0.88,0v4.18H588.53z M582.31,39.57c-0.24,0-2-1.67-2-1.86c0-0.38,1.66-1.79,2-2.09c0.24,0.04,1.79,1.75,2.06,2.05
				C584.13,38.13,582.75,39.57,582.31,39.57z"/>
			<path class="st6" d="M595.73,44.39l0.41,5.13c0.07,0.65-0.61,4.25-0.91,4.71c-0.1,0.15-0.37,0.3-0.54,0.38h-4.5v-4.18h3.55
				c0.07-0.11,0.1-0.27,0.1-0.38c0-1.33-0.78-7.1-1.18-8.24c-0.1-0.34-1.01-0.84-1.05-1.18c0.64-1.48,1.42-3.23,2.4-4.45l0.2,0.19
				c0.03,0.42,0.07,0.84,0.2,1.22c0.24,0.8,3.18,2.58,3.96,2.96L595.73,44.39z"/>
			<path class="st6" d="M602.7,54.92l-1.52-12.23c0.51-1.6,1.62-3.61,2.5-4.98c0.47,3.57,0.98,7.14,0.98,10.75
				C604.66,50.93,604.12,53.02,602.7,54.92z"/>
		</g>
		<g>
			<path class="st6" d="M147.98,83.23h-4.37V78.7h14.42v4.53h-4.59v18.79h-5.46V83.23z"/>
			<path class="st6" d="M160.13,78.7H165v7.66c0.84-1.49,2.14-2.2,3.94-2.2c2.79,0,3.91,1.86,3.91,5.64v12.22h-4.87V91.2
				c0-2.02,0-3.13-1.24-3.13c-1.05,0-1.74,1.05-1.74,3.01v10.95h-4.87V78.7z"/>
			<path class="st6" d="M188.5,95.88c0,0.16,0,0.28,0,0.43c0,4.09-2.14,6.17-6.39,6.17c-2.23,0-4-0.68-4.93-1.71
				c-1.36-1.52-1.52-3.88-1.52-7.35c0-3.53,0.06-5.92,1.58-7.6c1.09-1.18,2.79-1.8,5.08-1.8s3.97,0.65,5.02,1.95
				c1.21,1.46,1.24,3.32,1.24,5.83v2.11h-7.97c-0.03,0.65-0.06,1.24-0.06,1.74c0,2.29,0.37,3.29,1.74,3.29
				c1.12,0,1.67-0.74,1.67-2.23c0-0.28-0.03-0.53-0.06-0.84H188.5z M184.03,90.89c0.03-0.37,0.06-0.71,0.06-1.02
				c0-1.71-0.53-2.51-1.71-2.51c-1.24,0-1.67,0.81-1.67,2.57c0,0.28,0,0.62,0.03,0.96H184.03z"/>
			<path class="st6" d="M200.52,78.7h5.67l4.53,14.39c-0.34-4.62-0.53-8.19-0.53-10.73V78.7h4.87v23.32h-5.71L204.8,87.2
				c0.4,3.75,0.62,7.38,0.62,10.88v3.94h-4.9V78.7z"/>
			<path class="st6" d="M227.03,100.41c-1.24,1.3-2.7,1.95-4.4,1.95c-2.76,0-4.46-1.92-4.46-4.93c0-2.73,1.36-4.28,4.37-5.49
				c2.7-1.08,4.25-1.24,4.25-2.82c0-1.02-0.53-1.58-1.52-1.58c-1.21,0-1.77,0.71-1.77,2.2c0,0.03,0,0.09,0,0.12h-4.9
				c0-3.97,2.17-5.86,6.67-5.86c2.08,0,3.66,0.4,4.68,1.09c1.8,1.21,1.86,2.7,1.86,5.27c0,0.19,0,0.34,0,0.53v6.23
				c0,2.2,0.09,3.81,0.62,4.9h-5.12L227.03,100.41z M223.06,96.87c0,1.12,0.62,1.83,1.58,1.83c1.58,0,2.05-1.09,2.05-3.16v-1.95
				C224.24,94.27,223.06,95.26,223.06,96.87z"/>
			<path class="st6" d="M240.42,102.3c-1.98,0-3.35-0.68-3.97-1.83c-0.53-0.99-0.59-2.42-0.59-4.31c0-0.65,0-1.39,0-2.17v-5.86
				h-1.89V84.5h1.89v-4.84h4.93v4.84h2.33v3.63h-2.33v6.7c0,0.16,0,0.31,0,0.43c0,2.42,0.03,3.35,1.61,3.35
				c0.22,0,0.43-0.03,0.71-0.06v3.41C242,102.17,241.1,102.3,240.42,102.3z"/>
			<path class="st6" d="M245.69,78.52h4.87v4.25h-4.87V78.52z M245.69,84.5h4.87v17.52h-4.87V84.5z"/>
			<path class="st6" d="M260.14,84.03c4.99,0,6.51,2.7,6.51,9.24c0,6.54-1.55,9.21-6.51,9.21c-4.99,0-6.51-2.67-6.51-9.21
				C253.63,86.73,255.18,84.03,260.14,84.03z M260.14,98.82c1.52,0,1.55-1.67,1.55-5.55c0-3.88-0.03-5.58-1.55-5.58
				c-1.49,0-1.55,1.71-1.55,5.58C258.59,97.15,258.65,98.82,260.14,98.82z"/>
			<path class="st6" d="M269.75,84.5h4.59v2.08c1.09-1.67,2.42-2.42,4.25-2.42c2.79,0,3.91,1.86,3.91,5.64v12.22h-4.87V91.2
				c0-2.02,0-3.13-1.24-3.13c-1.05,0-1.74,1.05-1.74,3.01v10.95h-4.9V84.5z"/>
			<path class="st6" d="M294.14,100.41c-1.24,1.3-2.7,1.95-4.4,1.95c-2.76,0-4.46-1.92-4.46-4.93c0-2.73,1.36-4.28,4.37-5.49
				c2.7-1.08,4.25-1.24,4.25-2.82c0-1.02-0.53-1.58-1.52-1.58c-1.21,0-1.77,0.71-1.77,2.2c0,0.03,0,0.09,0,0.12h-4.9
				c0-3.97,2.17-5.86,6.67-5.86c2.08,0,3.66,0.4,4.68,1.09c1.8,1.21,1.86,2.7,1.86,5.27c0,0.19,0,0.34,0,0.53v6.23
				c0,2.2,0.09,3.81,0.62,4.9h-5.12L294.14,100.41z M290.18,96.87c0,1.12,0.62,1.83,1.58,1.83c1.58,0,2.05-1.09,2.05-3.16v-1.95
				C291.35,94.27,290.18,95.26,290.18,96.87z"/>
			<path class="st6" d="M302.36,102.02V78.7h4.87v23.32H302.36z"/>
			<path class="st6" d="M319.53,78.7h6.02c3.66,0,5.95,0.37,7.41,2.51c1.33,1.98,1.33,4.93,1.33,9.15s0,7.16-1.33,9.15
				c-1.46,2.14-3.75,2.51-7.41,2.51h-6.02V78.7z M325.02,97.77c0.28,0.03,0.53,0.03,0.78,0.03c1.15,0,1.92-0.31,2.42-1.02
				c0.5-0.71,0.53-2.82,0.53-6.39c0-0.37,0-0.71,0-1.05c0-2.91-0.03-4.68-0.5-5.33c-0.46-0.71-1.3-0.99-2.51-0.99
				c-0.22,0-0.46,0-0.71,0.03V97.77z"/>
			<path class="st6" d="M349.98,95.88c0,0.16,0,0.28,0,0.43c0,4.09-2.14,6.17-6.39,6.17c-2.23,0-4-0.68-4.93-1.71
				c-1.36-1.52-1.52-3.88-1.52-7.35c0-3.53,0.06-5.92,1.58-7.6c1.09-1.18,2.79-1.8,5.08-1.8s3.97,0.65,5.02,1.95
				c1.21,1.46,1.24,3.32,1.24,5.83v2.11h-7.97c-0.03,0.65-0.06,1.24-0.06,1.74c0,2.29,0.37,3.29,1.74,3.29
				c1.12,0,1.67-0.74,1.67-2.23c0-0.28-0.03-0.53-0.06-0.84H349.98z M345.51,90.89c0.03-0.37,0.06-0.71,0.06-1.02
				c0-1.71-0.53-2.51-1.71-2.51c-1.24,0-1.67,0.81-1.67,2.57c0,0.28,0,0.62,0.03,0.96H345.51z"/>
			<path class="st6" d="M358.41,102.3c-1.98,0-3.35-0.68-3.97-1.83c-0.53-0.99-0.59-2.42-0.59-4.31c0-0.65,0-1.39,0-2.17v-5.86
				h-1.89V84.5h1.89v-4.84h4.93v4.84h2.33v3.63h-2.33v6.7c0,0.16,0,0.31,0,0.43c0,2.42,0.03,3.35,1.61,3.35
				c0.22,0,0.43-0.03,0.71-0.06v3.41C359.99,102.17,359.09,102.3,358.41,102.3z"/>
			<path class="st6" d="M376.08,95.88c0,0.16,0,0.28,0,0.43c0,4.09-2.14,6.17-6.39,6.17c-2.23,0-4-0.68-4.93-1.71
				c-1.36-1.52-1.52-3.88-1.52-7.35c0-3.53,0.06-5.92,1.58-7.6c1.09-1.18,2.79-1.8,5.08-1.8s3.97,0.65,5.02,1.95
				c1.21,1.46,1.24,3.32,1.24,5.83v2.11h-7.97c-0.03,0.65-0.06,1.24-0.06,1.74c0,2.29,0.37,3.29,1.74,3.29
				c1.12,0,1.67-0.74,1.67-2.23c0-0.28-0.03-0.53-0.06-0.84H376.08z M371.61,90.89c0.03-0.37,0.06-0.71,0.06-1.02
				c0-1.71-0.53-2.51-1.71-2.51c-1.24,0-1.67,0.81-1.67,2.57c0,0.28,0,0.62,0.03,0.96H371.61z"/>
			<path class="st6" d="M379.24,84.5h4.5v2.45c1.05-1.74,2.29-2.63,3.94-2.79v5.55c-0.56-0.12-1.05-0.19-1.46-0.19
				c-1.77,0-2.11,1.24-2.11,4.09v8.4h-4.87V84.5z"/>
			<path class="st6" d="M402.67,98.7c0,0.53,0,1.02,0,1.49c0,2.36-0.09,4.15-1.12,5.52c-1.12,1.46-3.01,2.2-5.67,2.2
				c-4.09,0-6.08-1.64-6.08-5.12h4.84c0,1.27,0.43,1.89,1.46,1.89c1.4,0,1.71-0.87,1.71-2.95c0-0.59-0.03-1.27-0.06-2.05
				c-1.21,1.12-2.33,1.67-3.6,1.67c-1.67,0-3.04-0.93-3.78-2.67c-0.4-0.96-0.56-2.7-0.56-5.27c0-2.82,0.16-4.81,0.37-5.95
				c0.37-1.98,2.02-3.38,3.91-3.38c1.58,0,2.88,0.77,4.12,2.36V84.5h4.46V98.7z M394.74,92.22c0,3.47,0.06,5.3,1.49,5.3
				c1.4,0,1.55-1.43,1.55-4.31c0-0.25,0-0.5,0-0.71c0-2.92-0.06-4.34-1.52-4.34c-1.08,0-1.52,0.9-1.52,2.79
				C394.74,91.41,394.74,91.82,394.74,92.22z"/>
			<path class="st6" d="M418.67,95.88c0,0.16,0,0.28,0,0.43c0,4.09-2.14,6.17-6.39,6.17c-2.23,0-4-0.68-4.93-1.71
				c-1.36-1.52-1.52-3.88-1.52-7.35c0-3.53,0.06-5.92,1.58-7.6c1.08-1.18,2.79-1.8,5.08-1.8c2.29,0,3.97,0.65,5.02,1.95
				c1.21,1.46,1.24,3.32,1.24,5.83v2.11h-7.97c-0.03,0.65-0.06,1.24-0.06,1.74c0,2.29,0.37,3.29,1.74,3.29
				c1.12,0,1.67-0.74,1.67-2.23c0-0.28-0.03-0.53-0.06-0.84H418.67z M414.2,90.89c0.03-0.37,0.06-0.71,0.06-1.02
				c0-1.71-0.53-2.51-1.71-2.51c-1.24,0-1.67,0.81-1.67,2.57c0,0.28,0,0.62,0.03,0.96H414.2z"/>
			<path class="st6" d="M421.95,84.5h4.59v2.08c1.08-1.67,2.42-2.42,4.25-2.42c2.79,0,3.91,1.86,3.91,5.64v12.22h-4.87V91.2
				c0-2.02,0-3.13-1.24-3.13c-1.05,0-1.74,1.05-1.74,3.01v10.95h-4.9V84.5z"/>
			<path class="st6" d="M443.34,102.3c-1.98,0-3.35-0.68-3.97-1.83c-0.53-0.99-0.59-2.42-0.59-4.31c0-0.65,0-1.39,0-2.17v-5.86
				h-1.89V84.5h1.89v-4.84h4.93v4.84h2.33v3.63h-2.33v6.7c0,0.16,0,0.31,0,0.43c0,2.42,0.03,3.35,1.61,3.35
				c0.22,0,0.43-0.03,0.71-0.06v3.41C444.92,102.17,444.03,102.3,443.34,102.3z"/>
			<path class="st6" d="M472.3,93c0.03,0.4,0.03,0.78,0.03,1.18c0,5.64-2.42,8.4-7.6,8.4c-3.04,0-5.18-0.99-6.51-3.04
				c-1.15-1.77-1.3-4.77-1.3-9.18s0.15-7.41,1.3-9.18c1.3-2.02,3.44-3.04,6.42-3.04c5.12,0,7.66,2.85,7.66,8.5c0,0.09,0,0.16,0,0.22
				H467c-0.03-3.01-0.56-4.31-2.26-4.31c-2.26,0-2.29,2.23-2.29,7.38c0,0.16,0,0.28,0,0.43c0,5.46,0,7.84,2.29,7.84
				c1.8,0,2.2-1.27,2.2-4.19c0-0.31,0-0.65,0-1.02H472.3z"/>
			<path class="st6" d="M481.88,84.03c4.99,0,6.51,2.7,6.51,9.24c0,6.54-1.55,9.21-6.51,9.21c-4.99,0-6.51-2.67-6.51-9.21
				C475.36,86.73,476.91,84.03,481.88,84.03z M481.88,98.82c1.52,0,1.55-1.67,1.55-5.55c0-3.88-0.03-5.58-1.55-5.58
				c-1.49,0-1.55,1.71-1.55,5.58C480.32,97.15,480.39,98.82,481.88,98.82z"/>
			<path class="st6" d="M491.3,96.68h5.36v5.33h-5.36V96.68z"/>
			<path class="st6" d="M513.06,94.11c0,0.25,0,0.46,0,0.68c0,2.42,0.47,3.5,1.98,3.5c1.15,0,1.86-0.84,1.86-2.23
				c0-1.92-1.27-2.48-3.04-3.66c-1.98-1.33-3.5-2.33-4.34-3.5c-0.78-1.12-1.18-2.54-1.18-4.22c0-4.09,2.51-6.54,6.64-6.54
				c4.53,0,6.95,2.36,6.95,6.67c0,0.25-0.03,0.5-0.03,0.74H517c0-0.09,0-0.19,0-0.28c0-2.05-0.65-3.1-1.86-3.1
				c-0.99,0-1.71,0.74-1.71,2.02c0,1.71,1.4,2.33,3.41,3.63c1.83,1.18,3.35,2.05,4.25,3.44c0.65,1.02,1.02,2.39,1.02,4.03
				c0,4.68-2.51,7.29-7.01,7.29c-4.71,0-7.1-2.42-7.1-7.19c0-0.4,0.03-0.84,0.06-1.27H513.06z"/>
			<path class="st6" d="M524.87,96.68h5.36v5.33h-5.36V96.68z"/>
			<path class="st6" d="M537.24,78.7h6.48l5.02,23.32h-5.46l-0.68-4.46h-4.28l-0.68,4.46h-5.49L537.24,78.7z M542.02,93.34
				l-1.55-10.17l-1.58,10.17H542.02z"/>
			<path class="st6" d="M551.26,96.68h5.36v5.33h-5.36V96.68z"/>
			<path class="st6" d="M561.06,81.18c1.33-2.05,3.47-3.04,6.51-3.04c3.04,0,5.15,0.99,6.48,3.04c1.18,1.8,1.33,4.81,1.33,9.18
				s-0.15,7.38-1.33,9.18c-1.33,2.05-3.47,3.04-6.48,3.04c-3.04,0-5.18-0.99-6.51-3.04c-1.15-1.77-1.3-4.77-1.3-9.18
				S559.91,82.95,561.06,81.18z M569.8,88.25c0-3.78,0-5.71-2.26-5.71c-2.2,0-2.23,1.92-2.23,5.71v4.22c0,3.81,0.06,5.71,2.26,5.71
				c2.2,0,2.23-1.89,2.23-5.71V88.25z"/>
			<path class="st6" d="M577.79,96.68h5.36v5.33h-5.36V96.68z"/>
			<path class="st6" d="M601.07,102.02h-3.75l-0.25-1.46c-1.09,1.27-2.39,1.86-4.06,1.86c-1.89,0-3.53-0.71-4.71-2.05
				c-1.86-2.08-2.02-5.36-2.02-10.32c0-4.37,0.34-7.32,1.3-8.84c1.3-2.05,3.44-3.07,6.36-3.07c4.59,0,6.91,2.51,6.91,7.44
				c0,0.28-0.03,0.56-0.03,0.87h-5.18c0-0.09,0-0.19,0-0.28c0-2.57-0.46-3.75-1.83-3.75c-1.89,0-2.02,1.89-2.02,6.01
				c0,0.71,0,1.46,0,2.29c0,0.56,0,1.08,0,1.61c0,4.09,0.09,5.92,1.92,5.92c1.52,0,2.11-1.21,2.11-3.78c0-0.37,0-0.74-0.03-1.18
				h-2.14v-4.06h7.41V102.02z"/>
			<path class="st6" d="M604.42,96.68h5.36v5.33h-5.36V96.68z"/>
		</g>
	</g>
</g>
</svg>
